<?xml version="1.0" standalone="no"?>
<!DOCTYPE svg PUBLIC "-//W3C//DTD SVG 20010904//EN"
 "http://www.w3.org/TR/2001/REC-SVG-20010904/DTD/svg10.dtd">
<svg version="1.0" xmlns="http://www.w3.org/2000/svg"
 width="512.000000pt" height="512.000000pt" viewBox="0 0 512.000000 512.000000"
 preserveAspectRatio="xMidYMid meet">
<metadata>
Created by potrace 1.14, written by Peter Selinger 2001-2017
</metadata>
<g transform="translate(0.000000,512.000000) scale(0.100000,-0.100000)"
fill="#000000" stroke="none">
<path d="M2476 3793 c54 -124 68 -178 68 -268 1 -146 -36 -199 -269 -386 -204
-164 -279 -253 -326 -389 -19 -54 -23 -86 -22 -190 0 -153 21 -242 90 -380 40
-80 62 -110 143 -190 52 -53 136 -123 186 -157 87 -59 283 -167 291 -160 2 2
-10 34 -27 71 -63 139 -74 263 -32 359 29 65 94 131 258 263 164 131 229 200
278 294 53 100 69 183 63 315 -9 169 -61 321 -153 447 -87 117 -277 264 -466
359 l-98 49 16 -37z"/>
<path d="M1577 1472 c-23 -25 -23 -124 -1 -146 14 -14 116 -16 978 -16 735 0
965 3 974 12 7 7 12 40 12 80 0 56 -3 69 -19 78 -13 7 -335 10 -974 10 -911 0
-955 -1 -970 -18z"/>
</g>
</svg>
